<?xml version="1.0" encoding="UTF-8"?>
<svg xmlns="http://www.w3.org/2000/svg" height="620" width="502">
   <g transform="translate(100, 285)">
      <text y="2" x="-30" font-size="10" text-anchor="middle">0</text>
      <line x1="0" x2="-15" y1="0" y2="0" stroke="black"/>
      <line x1="0"
            x2="252"
            y1="0"
            y2="0"
            stroke="black"
            opacity=".5"/>
      <text y="42" x="-30" font-size="10" text-anchor="middle">4</text>
      <line x1="0" x2="-15" y1="40" y2="40" stroke="black"/>
      <line x1="0"
            x2="252"
            y1="40"
            y2="40"
            stroke="black"
            opacity=".5"/>
      <text y="82" x="-30" font-size="10" text-anchor="middle">8</text>
      <line x1="0" x2="-15" y1="80" y2="80" stroke="black"/>
      <line x1="0"
            x2="252"
            y1="80"
            y2="80"
            stroke="black"
            opacity=".5"/>
      <text y="122" x="-30" font-size="10" text-anchor="middle">12</text>
      <line x1="0" x2="-15" y1="120" y2="120" stroke="black"/>
      <line x1="0"
            x2="252"
            y1="120"
            y2="120"
            stroke="black"
            opacity=".5"/>
      <text y="162" x="-30" font-size="10" text-anchor="middle">16</text>
      <line x1="0" x2="-15" y1="160" y2="160" stroke="black"/>
      <line x1="0"
            x2="252"
            y1="160"
            y2="160"
            stroke="black"
            opacity=".5"/>
      <text x="-30" y="-158" font-size="10" text-anchor="middle">16</text>
      <line x1="-15" x2="0" y1="-160" y2="-160" stroke="black"/>
      <line x1="0"
            x2="252"
            y1="-160"
            y2="-160"
            stroke="black"
            opacity=".5"/>
      <text x="-30" y="-118" font-size="10" text-anchor="middle">12</text>
      <line x1="-15" x2="0" y1="-120" y2="-120" stroke="black"/>
      <line x1="0"
            x2="252"
            y1="-120"
            y2="-120"
            stroke="black"
            opacity=".5"/>
      <text x="-30" y="-78" font-size="10" text-anchor="middle">8</text>
      <line x1="-15" x2="0" y1="-80" y2="-80" stroke="black"/>
      <line x1="0"
            x2="252"
            y1="-80"
            y2="-80"
            stroke="black"
            opacity=".5"/>
      <text x="-30" y="-38" font-size="10" text-anchor="middle">4</text>
      <line x1="-15" x2="0" y1="-40" y2="-40" stroke="black"/>
      <line x1="0"
            x2="252"
            y1="-40"
            y2="-40"
            stroke="black"
            opacity=".5"/>
      <text y="80"
            x="-50"
            font-size="14"
            text-anchor="middle"
            font-weight="300"
            writing-mode="tb">"Unstress"/Good Health</text>
      <text y="-80"
            x="-50"
            font-size="14"
            text-anchor="middle"
            font-weight="300"
            writing-mode="tb">"Stress"/Bad Health</text>
      <text x="126"
            y="-185"
            font-size="16"
            text-anchor="middle"
            font-weight="300">Mentions of Mental Health/Stress Factors</text>
      <text y="275" x="126" text-anchor="middle" font-size="16">Location at time of writing</text>
      <line y1="-160"
            y2="160"
            x1="18"
            x2="18"
            stroke="black"
            opacity=".5"
            stroke-dasharray="5,5"/>
      <rect y="0"
            height="0"
            x="9"
            width="18"
            fill="#88c5db"
            stroke-width=".5"
            stroke="black"/>
      <rect y="-0"
            height="0"
            x="9"
            width="18"
            fill="#f0d946"
            stroke-width=".5"
            stroke="black"/>
      <text y="170"
            x="21"
            text-anchor="start"
            font-size="10"
            writing-mode="tb">Nuenen</text>
      <line y1="-160"
            y2="160"
            x1="45"
            x2="45"
            stroke="black"
            opacity=".5"
            stroke-dasharray="5,5"/>
      <rect y="0"
            height="0"
            x="36"
            width="18"
            fill="#88c5db"
            stroke-width=".5"
            stroke="black"/>
      <rect y="-20"
            height="20"
            x="36"
            width="18"
            fill="#f0d946"
            stroke-width=".5"
            stroke="black"/>
      <text y="170"
            x="48"
            text-anchor="start"
            font-size="10"
            writing-mode="tb">The Hague</text>
      <line y1="-160"
            y2="160"
            x1="72"
            x2="72"
            stroke="black"
            opacity=".5"
            stroke-dasharray="5,5"/>
      <rect y="0"
            height="0"
            x="63"
            width="18"
            fill="#88c5db"
            stroke-width=".5"
            stroke="black"/>
      <rect y="-60"
            height="60"
            x="63"
            width="18"
            fill="#f0d946"
            stroke-width=".5"
            stroke="black"/>
      <text y="170"
            x="75"
            text-anchor="start"
            font-size="10"
            writing-mode="tb">Etten</text>
      <line y1="-160"
            y2="160"
            x1="99"
            x2="99"
            stroke="black"
            opacity=".5"
            stroke-dasharray="5,5"/>
      <rect y="0"
            height="60"
            x="90"
            width="18"
            fill="#88c5db"
            stroke-width=".5"
            stroke="black"/>
      <rect y="-30"
            height="30"
            x="90"
            width="18"
            fill="#f0d946"
            stroke-width=".5"
            stroke="black"/>
      <text y="170"
            x="102"
            text-anchor="start"
            font-size="10"
            writing-mode="tb">Nieuw-Amsterdam</text>
      <line y1="-160"
            y2="160"
            x1="126"
            x2="126"
            stroke="black"
            opacity=".5"
            stroke-dasharray="5,5"/>
      <rect y="0"
            height="0"
            x="117"
            width="18"
            fill="#88c5db"
            stroke-width=".5"
            stroke="black"/>
      <rect y="-110"
            height="110"
            x="117"
            width="18"
            fill="#f0d946"
            stroke-width=".5"
            stroke="black"/>
      <text y="170"
            x="129"
            text-anchor="start"
            font-size="10"
            writing-mode="tb">Cuesmes</text>
      <line y1="-160"
            y2="160"
            x1="153"
            x2="153"
            stroke="black"
            opacity=".5"
            stroke-dasharray="5,5"/>
      <rect y="0"
            height="60"
            x="144"
            width="18"
            fill="#88c5db"
            stroke-width=".5"
            stroke="black"/>
      <rect y="-130"
            height="130"
            x="144"
            width="18"
            fill="#f0d946"
            stroke-width=".5"
            stroke="black"/>
      <text y="170"
            x="156"
            text-anchor="start"
            font-size="10"
            writing-mode="tb">Hoogeveen</text>
      <line y1="-160"
            y2="160"
            x1="180"
            x2="180"
            stroke="black"
            opacity=".5"
            stroke-dasharray="5,5"/>
      <rect y="0"
            height="0"
            x="171"
            width="18"
            fill="#88c5db"
            stroke-width=".5"
            stroke="black"/>
      <rect y="-0"
            height="0"
            x="171"
            width="18"
            fill="#f0d946"
            stroke-width=".5"
            stroke="black"/>
      <text y="170"
            x="183"
            text-anchor="start"
            font-size="10"
            writing-mode="tb">Brussels</text>
      <line y1="-160"
            y2="160"
            x1="207"
            x2="207"
            stroke="black"
            opacity=".5"
            stroke-dasharray="5,5"/>
      <rect y="0"
            height="20"
            x="198"
            width="18"
            fill="#88c5db"
            stroke-width=".5"
            stroke="black"/>
      <rect y="-130"
            height="130"
            x="198"
            width="18"
            fill="#f0d946"
            stroke-width=".5"
            stroke="black"/>
      <text y="170"
            x="210"
            text-anchor="start"
            font-size="10"
            writing-mode="tb">Antwerp</text>
      <line y1="-160"
            y2="160"
            x1="234"
            x2="234"
            stroke="black"
            opacity=".5"
            stroke-dasharray="5,5"/>
      <rect y="0"
            height="0"
            x="225"
            width="18"
            fill="#88c5db"
            stroke-width=".5"
            stroke="black"/>
      <rect y="-10"
            height="10"
            x="225"
            width="18"
            fill="#f0d946"
            stroke-width=".5"
            stroke="black"/>
      <text y="170"
            x="237"
            text-anchor="start"
            font-size="10"
            writing-mode="tb">Paris</text>
      <line y1="-160" y2="160" x1="0" x2="0" stroke="black"/>
      <line y1="0" y2="0" x1="0" x2="252" stroke="black"/>
   </g>
</svg>
