<svg xmlns="http://www.w3.org/2000/svg" height="500" width="500">
    <g transform="translate(100, 385)">
        <text x="162.5" y="-335" text-anchor="middle">Open Language Across Poems</text>
        <line x1="0" y1="-0" x2="325" y2="-0" stroke="lightgray"/>
        <text x="-10" y="-0" text-anchor="end" dominant-baseline="middle" fill="gray"
            font-size="smaller">0</text>
        <line x1="0" y1="-50" x2="325" y2="-50" stroke="lightgray"/>
        <text x="-10" y="-50" text-anchor="end" dominant-baseline="middle" fill="gray"
            font-size="smaller">10</text>
        <line x1="0" y1="-100" x2="325" y2="-100" stroke="lightgray"/>
        <text x="-10" y="-100" text-anchor="end" dominant-baseline="middle" fill="gray"
            font-size="smaller">20</text>
        <line x1="0" y1="-150" x2="325" y2="-150" stroke="lightgray"/>
        <text x="-10" y="-150" text-anchor="end" dominant-baseline="middle" fill="gray"
            font-size="smaller">30</text>
        <line x1="0" y1="-200" x2="325" y2="-200" stroke="lightgray"/>
        <text x="-10" y="-200" text-anchor="end" dominant-baseline="middle" fill="gray"
            font-size="smaller">40</text>
        <line x1="0" y1="-250" x2="325" y2="-250" stroke="lightgray"/>
        <text x="-10" y="-250" text-anchor="end" dominant-baseline="middle" fill="gray"
            font-size="smaller">50</text>
        <rect x="12.5" width="25" y="-105" height="105" fill="red"/>
        <text x="25" y="-110" text-anchor="middle" font-size="smaller" fill="gray">21</text>
        <rect x="37.5" width="25" y="-180" height="180" fill="blue"/>
        <text x="50" y="-185" text-anchor="middle" font-size="smaller" fill="gray">36</text>
        <text x="25" y="5" text-anchor="start" font-size="x-small" transform="rotate(30, 12.5, 15)">
            <tspan>THE CITY IN THE SEA.</tspan>
            <tspan x="25" y="15">April 1, 1835</tspan>
        </text>
        <rect x="75" width="25" y="-235" height="235" fill="red"/>
        <text x="87.5" y="-240" text-anchor="middle" font-size="smaller" fill="gray">47</text>
        <rect x="100" width="25" y="-285" height="285" fill="blue"/>
        <text x="112.5" y="-290" text-anchor="middle" font-size="smaller" fill="gray">57</text>
        <text x="87.5" y="5" text-anchor="start" font-size="x-small" transform="rotate(30, 75, 15)">
            <tspan>THE RAVEN</tspan>
            <tspan x="87.5" y="15">January 29, 1845</tspan>
        </text>
        <rect x="137.5" width="25" y="-35" height="35" fill="red"/>
        <text x="150" y="-40" text-anchor="middle" font-size="smaller" fill="gray">7</text>
        <rect x="162.5" width="25" y="-55" height="55" fill="blue"/>
        <text x="175" y="-60" text-anchor="middle" font-size="smaller" fill="gray">11</text>
        <text x="150" y="5" text-anchor="start" font-size="x-small"
            transform="rotate(30, 137.5, 15)">
            <tspan>A DREAM WITHIN A DREAM</tspan>
            <tspan x="150" y="15">March 31, 1849</tspan>
        </text>
        <rect x="200" width="25" y="-35" height="35" fill="red"/>
        <text x="212.5" y="-40" text-anchor="middle" font-size="smaller" fill="gray">7</text>
        <rect x="225" width="25" y="-55" height="55" fill="blue"/>
        <text x="237.5" y="-60" text-anchor="middle" font-size="smaller" fill="gray">11</text>
        <text x="212.5" y="5" text-anchor="start" font-size="x-small"
            transform="rotate(30, 200, 15)">
            <tspan>ELDORADO</tspan>
            <tspan x="212.5" y="15">April 21, 1849</tspan>
        </text>
        <rect x="262.5" width="25" y="-125" height="125" fill="red"/>
        <text x="275" y="-130" text-anchor="middle" font-size="smaller" fill="gray">25</text>
        <rect x="287.5" width="25" y="-115" height="115" fill="blue"/>
        <text x="300" y="-120" text-anchor="middle" font-size="smaller" fill="gray">23</text>
        <text x="275" y="5" text-anchor="start" font-size="x-small"
            transform="rotate(30, 262.5, 15)">
            <tspan>ANNABEL LEE</tspan>
            <tspan x="275" y="15">October 9, 1849</tspan>
        </text>
        <line x1="0" x2="325" y1="0" y2="0" stroke="black" stroke-linecap="square"/>
        <text x="162.5" y="100" text-anchor="middle">Poem</text>
        <line x1="0" x2="0" y1="0" y2="-285" stroke="black" stroke-linecap="square"/>
        <text x="-50" y="-142.5" transform="rotate(270, -50, -142.5)" text-anchor="middle">Word
            Count</text>
        <g transform="translate(200, -250)">
            <rect x="0" y="0" width="100" height="50" stroke="black" fill="white"/>
            <rect x="10" y="10" width="10" height="10" fill="red"/>
            <text x="30" y="15" dominant-baseline="middle">Open</text>
            <rect x="10" y="30" width="10" height="10" fill="blue"/>
            <text x="30" y="35" dominant-baseline="middle">Closed</text>
        </g>
    </g>
</svg>
