<?xml version="1.0" encoding="UTF-8"?>
<svg xmlns="http://www.w3.org/2000/svg" height="620" width="502">
   <g transform="translate(100, 285)">
      <text x="-30" y="2" font-size="16" text-anchor="middle">0</text>
      <line x1="0" x2="-15" y1="0" y2="0" stroke="black"/>
      <line x1="0"
            x2="252"
            y1="0"
            y2="0"
            stroke="black"
            opacity=".5"/>
      <text x="-30" y="42" font-size="16" text-anchor="middle">4</text>
      <line x1="0" x2="-15" y1="40" y2="40" stroke="black"/>
      <line x1="0"
            x2="252"
            y1="40"
            y2="40"
            stroke="black"
            opacity=".5"/>
      <text x="-30" y="82" font-size="16" text-anchor="middle">8</text>
      <line x1="0" x2="-15" y1="80" y2="80" stroke="black"/>
      <line x1="0"
            x2="252"
            y1="80"
            y2="80"
            stroke="black"
            opacity=".5"/>
      <text x="-30" y="122" font-size="16" text-anchor="middle">12</text>
      <line x1="0" x2="-15" y1="120" y2="120" stroke="black"/>
      <line x1="0"
            x2="252"
            y1="120"
            y2="120"
            stroke="black"
            opacity=".5"/>
      <text x="-30" y="162" font-size="16" text-anchor="middle">16</text>
      <line x1="0" x2="-15" y1="160" y2="160" stroke="black"/>
      <line x1="0"
            x2="252"
            y1="160"
            y2="160"
            stroke="black"
            opacity=".5"/>
      <text x="-30" y="-158" font-size="16" text-anchor="middle">16</text>
      <line x1="-15" x2="0" y1="-160" y2="-160" stroke="black"/>
      <line x1="0"
            x2="252"
            y1="-160"
            y2="-160"
            stroke="black"
            opacity=".5"/>
      <text x="-30" y="-118" font-size="16" text-anchor="middle">12</text>
      <line x1="-15" x2="0" y1="-120" y2="-120" stroke="black"/>
      <line x1="0"
            x2="252"
            y1="-120"
            y2="-120"
            stroke="black"
            opacity=".5"/>
      <text x="-30" y="-78" font-size="16" text-anchor="middle">8</text>
      <line x1="-15" x2="0" y1="-80" y2="-80" stroke="black"/>
      <line x1="0"
            x2="252"
            y1="-80"
            y2="-80"
            stroke="black"
            opacity=".5"/>
      <text x="-30" y="-38" font-size="16" text-anchor="middle">4</text>
      <line x1="-15" x2="0" y1="-40" y2="-40" stroke="black"/>
      <line x1="0"
            x2="252"
            y1="-40"
            y2="-40"
            stroke="black"
            opacity=".5"/>
      <line x1="18"
            x2="18"
            y1="-160"
            y2="160"
            stroke="black"
            opacity=".5"
            stroke-dasharray="5,5"/>
      <rect x="9"
            width="18"
            y="-0"
            height="0"
            fill="#88c5db"
            stroke-width=".5"
            stroke="black"/>
      <rect x="9"
            width="18"
            y="0"
            height="0"
            fill="#f0d946"
            stroke-width=".5"
            stroke="black"/>
      <text x="21"
            y="170"
            text-anchor="end"
            font-size="16"
            transform="rotate(315, 21, 170)">Nuenen</text>
      <line x1="45"
            x2="45"
            y1="-160"
            y2="160"
            stroke="black"
            opacity=".5"
            stroke-dasharray="5,5"/>
      <rect x="36"
            width="18"
            y="-0"
            height="0"
            fill="#88c5db"
            stroke-width=".5"
            stroke="black"/>
      <rect x="36"
            width="18"
            y="0"
            height="20"
            fill="#f0d946"
            stroke-width=".5"
            stroke="black"/>
      <text x="48"
            y="170"
            text-anchor="end"
            font-size="16"
            transform="rotate(315, 48, 170)">The Hague</text>
      <line x1="72"
            x2="72"
            y1="-160"
            y2="160"
            stroke="black"
            opacity=".5"
            stroke-dasharray="5,5"/>
      <rect x="63"
            width="18"
            y="-0"
            height="0"
            fill="#88c5db"
            stroke-width=".5"
            stroke="black"/>
      <rect x="63"
            width="18"
            y="0"
            height="60"
            fill="#f0d946"
            stroke-width=".5"
            stroke="black"/>
      <text x="75"
            y="170"
            text-anchor="end"
            font-size="16"
            transform="rotate(315, 75, 170)">Etten</text>
      <line x1="99"
            x2="99"
            y1="-160"
            y2="160"
            stroke="black"
            opacity=".5"
            stroke-dasharray="5,5"/>
      <rect x="90"
            width="18"
            y="-60"
            height="60"
            fill="#88c5db"
            stroke-width=".5"
            stroke="black"/>
      <rect x="90"
            width="18"
            y="0"
            height="30"
            fill="#f0d946"
            stroke-width=".5"
            stroke="black"/>
      <text x="102"
            y="170"
            text-anchor="end"
            font-size="16"
            transform="rotate(315, 102, 170)">Nieuw-Amsterdam</text>
      <line x1="126"
            x2="126"
            y1="-160"
            y2="160"
            stroke="black"
            opacity=".5"
            stroke-dasharray="5,5"/>
      <rect x="117"
            width="18"
            y="-0"
            height="0"
            fill="#88c5db"
            stroke-width=".5"
            stroke="black"/>
      <rect x="117"
            width="18"
            y="0"
            height="110"
            fill="#f0d946"
            stroke-width=".5"
            stroke="black"/>
      <text x="129"
            y="170"
            text-anchor="end"
            font-size="16"
            transform="rotate(315, 129, 170)">Cuesmes</text>
      <line x1="153"
            x2="153"
            y1="-160"
            y2="160"
            stroke="black"
            opacity=".5"
            stroke-dasharray="5,5"/>
      <rect x="144"
            width="18"
            y="-60"
            height="60"
            fill="#88c5db"
            stroke-width=".5"
            stroke="black"/>
      <rect x="144"
            width="18"
            y="0"
            height="130"
            fill="#f0d946"
            stroke-width=".5"
            stroke="black"/>
      <text x="156"
            y="170"
            text-anchor="end"
            font-size="16"
            transform="rotate(315, 156, 170)">Hoogeveen</text>
      <line x1="180"
            x2="180"
            y1="-160"
            y2="160"
            stroke="black"
            opacity=".5"
            stroke-dasharray="5,5"/>
      <rect x="171"
            width="18"
            y="-0"
            height="0"
            fill="#88c5db"
            stroke-width=".5"
            stroke="black"/>
      <rect x="171"
            width="18"
            y="0"
            height="0"
            fill="#f0d946"
            stroke-width=".5"
            stroke="black"/>
      <text x="183"
            y="170"
            text-anchor="end"
            font-size="16"
            transform="rotate(315, 183, 170)">Brussels</text>
      <line x1="207"
            x2="207"
            y1="-160"
            y2="160"
            stroke="black"
            opacity=".5"
            stroke-dasharray="5,5"/>
      <rect x="198"
            width="18"
            y="-20"
            height="20"
            fill="#88c5db"
            stroke-width=".5"
            stroke="black"/>
      <rect x="198"
            width="18"
            y="0"
            height="130"
            fill="#f0d946"
            stroke-width=".5"
            stroke="black"/>
      <text x="210"
            y="170"
            text-anchor="end"
            font-size="16"
            transform="rotate(315, 210, 170)">Antwerp</text>
      <line x1="234"
            x2="234"
            y1="-160"
            y2="160"
            stroke="black"
            opacity=".5"
            stroke-dasharray="5,5"/>
      <rect x="225"
            width="18"
            y="-0"
            height="0"
            fill="#88c5db"
            stroke-width=".5"
            stroke="black"/>
      <rect x="225"
            width="18"
            y="0"
            height="10"
            fill="#f0d946"
            stroke-width=".5"
            stroke="black"/>
      <text x="237"
            y="170"
            text-anchor="end"
            font-size="16"
            transform="rotate(315, 237, 170)">Paris</text>
      <text x="-50"
            y="-80"
            font-size="16"
            text-anchor="middle"
            font-weight="300"
            transform="rotate(270, -50, -80)">Good Health</text>
      <text x="-50"
            y="80"
            font-size="16"
            text-anchor="middle"
            font-weight="300"
            transform="rotate(270, -50, 80)">Bad Health</text>
      <text x="126" y="310" text-anchor="middle" font-size="16">Location at time of writing</text>
      <text x="126"
            y="-185"
            font-size="16"
            text-anchor="middle"
            font-weight="300">Mentions of Mental Health/Stress Factors</text>
      <line x1="0" x2="0" y1="-160" y2="160" stroke="black"/>
      <line x1="0" x2="252" y1="0" y2="0" stroke="black"/>
   </g>
</svg>
